<svg width="162" height="25" fill="none" xmlns="http://www.w3.org/2000/svg"><path d="M0 0h6.394v24.7H0V0zm20.122 25c-1.952 0-3.713-.4-5.283-1.198-1.57-.8-2.804-1.909-3.702-3.33-.874-1.42-1.312-3.029-1.312-4.826 0-1.776.438-3.373 1.313-4.794.897-1.42 2.12-2.519 3.667-3.295 1.57-.8 3.343-1.199 5.317-1.199 1.974 0 3.747.4 5.317 1.199 1.57.776 2.793 1.875 3.668 3.295.875 1.398 1.312 2.996 1.312 4.794 0 1.797-.437 3.406-1.312 4.827-.875 1.42-2.098 2.53-3.668 3.329C23.869 24.6 22.096 25 20.122 25zm0-5.027c1.122 0 2.042-.377 2.76-1.131.717-.777 1.076-1.842 1.076-3.196 0-1.332-.359-2.375-1.076-3.13-.718-.754-1.638-1.131-2.76-1.131-1.122 0-2.041.377-2.76 1.132-.717.754-1.076 1.797-1.076 3.129 0 1.354.359 2.419 1.077 3.195.718.755 1.637 1.132 2.76 1.132zm21.958-1.598l-1.885 1.898V24.7h-6.394V0h6.394v12.95l6.528-6.292h7.572l-7.572 7.723 8.21 10.32h-7.739l-5.114-6.326zM64.736 6.358c3.028 0 5.339.688 6.932 2.064 1.592 1.354 2.389 3.44 2.389 6.258V24.7H68.1v-2.33c-.92 1.753-2.715 2.63-5.384 2.63-1.414 0-2.636-.244-3.668-.732-1.032-.489-1.817-1.143-2.356-1.964-.516-.844-.774-1.798-.774-2.863 0-1.71.662-3.03 1.986-3.962 1.323-.954 3.365-1.431 6.124-1.431h3.634c-.112-1.909-1.402-2.863-3.87-2.863a8.65 8.65 0 00-2.658.433c-.897.266-1.66.643-2.288 1.132l-2.154-4.295c1.01-.665 2.232-1.176 3.668-1.53a17.404 17.404 0 014.375-.567zM64.5 21.005c.74 0 1.391-.177 1.952-.532.56-.355.965-.877 1.211-1.565v-1.565h-2.76c-1.861 0-2.792.61-2.792 1.831 0 .555.213 1 .64 1.332.426.333 1.009.5 1.75.5zM89.988 6.358c1.66 0 3.163.377 4.509 1.132 1.369.755 2.446 1.842 3.23 3.262.808 1.398 1.212 3.03 1.212 4.894 0 1.864-.404 3.506-1.212 4.927-.784 1.42-1.861 2.518-3.23 3.295-1.346.755-2.849 1.132-4.509 1.132-2.4 0-4.195-.7-5.384-2.097V24.7h-6.09V0h6.392v8.222c1.235-1.242 2.929-1.864 5.082-1.864zm-1.346 13.615c1.122 0 2.041-.377 2.76-1.131.717-.777 1.076-1.842 1.076-3.196 0-1.332-.36-2.375-1.076-3.13-.719-.754-1.638-1.131-2.76-1.131-1.121 0-2.041.377-2.76 1.132-.718.754-1.076 1.797-1.076 3.129 0 1.354.359 2.419 1.077 3.195.718.755 1.638 1.132 2.76 1.132zm32.331-4.26c0 .044-.033.565-.1 1.564h-13.258c.269.932.784 1.653 1.547 2.164.785.488 1.762.732 2.928.732.875 0 1.626-.122 2.255-.366.65-.244 1.301-.644 1.952-1.198l3.364 3.461c-1.772 1.953-4.363 2.93-7.773 2.93-2.132 0-4.004-.4-5.619-1.198-1.615-.8-2.872-1.909-3.769-3.33-.875-1.42-1.313-3.029-1.313-4.826 0-1.776.427-3.362 1.279-4.76.874-1.42 2.075-2.53 3.6-3.33 1.526-.798 3.242-1.198 5.149-1.198 1.817 0 3.466.377 4.947 1.132a8.281 8.281 0 013.499 3.229c.875 1.398 1.312 3.063 1.312 4.993zm-9.725-4.86c-.986 0-1.816.277-2.49.831-.65.555-1.065 1.31-1.245 2.264h7.47c-.178-.954-.605-1.709-1.278-2.264-.651-.554-1.469-.832-2.457-.832zm31.737 4.86c0 .044-.034.565-.102 1.564h-13.258c.269.932.786 1.653 1.548 2.164.785.488 1.761.732 2.928.732.874 0 1.626-.122 2.254-.366.651-.244 1.301-.644 1.952-1.198l3.365 3.461c-1.773 1.953-4.363 2.93-7.774 2.93-2.13 0-4.004-.4-5.619-1.198-1.615-.8-2.872-1.909-3.769-3.33-.875-1.42-1.312-3.029-1.312-4.826 0-1.776.426-3.362 1.279-4.76.875-1.42 2.075-2.53 3.6-3.33 1.526-.798 3.242-1.198 5.149-1.198 1.817 0 3.466.377 4.947 1.132a8.293 8.293 0 013.499 3.229c.875 1.398 1.313 3.063 1.313 4.993zm-9.725-4.86c-.988 0-1.818.277-2.491.831-.65.555-1.065 1.31-1.245 2.264h7.471c-.18-.954-.606-1.709-1.279-2.264-.65-.554-1.47-.832-2.456-.832zM152.982 25c-1.525 0-3.028-.166-4.509-.5-1.481-.354-2.67-.81-3.568-1.364l1.919-4.328c.83.51 1.817.921 2.961 1.232a13.86 13.86 0 003.399.433c1.032 0 1.761-.1 2.187-.3.448-.222.673-.532.673-.932s-.269-.677-.808-.832c-.515-.178-1.346-.344-2.49-.5-1.458-.177-2.703-.41-3.735-.699a5.753 5.753 0 01-2.624-1.598c-.741-.776-1.111-1.864-1.111-3.262 0-1.154.348-2.175 1.043-3.062.695-.91 1.706-1.62 3.029-2.13 1.346-.534 2.95-.8 4.811-.8 1.325 0 2.637.133 3.938.4 1.301.266 2.389.643 3.264 1.131l-1.918 4.295c-1.615-.888-3.365-1.332-5.25-1.332-1.009 0-1.749.122-2.221.366-.471.222-.706.522-.706.9 0 .42.258.72.774.898.515.155 1.368.322 2.558.5 1.502.221 2.747.476 3.735.765a5.545 5.545 0 012.556 1.598c.741.754 1.111 1.82 1.111 3.196a4.92 4.92 0 01-1.043 3.062c-.695.888-1.727 1.587-3.095 2.097-1.346.51-2.973.766-4.88.766z" fill="#000"/></svg>