<svg width="85" height="84" viewBox="0 0 85 84" fill="#f0f0f0" xmlns="http://www.w3.org/2000/svg">
<path d="M68 47.9996C66.9391 47.9996 65.9217 48.421 65.1716 49.1712C64.4214 49.9213 64 50.9387 64 51.9996V53.5196L58.08 47.5996C55.9897 45.5258 53.1645 44.3621 50.22 44.3621C47.2755 44.3621 44.4503 45.5258 42.36 47.5996L39.56 50.3996L29.64 40.4796C27.5205 38.462 24.7063 37.3367 21.78 37.3367C18.8537 37.3367 16.0395 38.462 13.92 40.4796L8 46.3996V23.9996C8 22.9387 8.42143 21.9213 9.17157 21.1712C9.92172 20.421 10.9391 19.9996 12 19.9996H40C41.0609 19.9996 42.0783 19.5782 42.8284 18.828C43.5786 18.0779 44 17.0605 44 15.9996C44 14.9387 43.5786 13.9213 42.8284 13.1712C42.0783 12.421 41.0609 11.9996 40 11.9996H12C8.8174 11.9996 5.76516 13.2639 3.51472 15.5143C1.26428 17.7647 0 20.817 0 23.9996V71.9996C0 75.1822 1.26428 78.2344 3.51472 80.4849C5.76516 82.7353 8.8174 83.9996 12 83.9996H60C63.1826 83.9996 66.2348 82.7353 68.4853 80.4849C70.7357 78.2344 72 75.1822 72 71.9996V51.9996C72 50.9387 71.5786 49.9213 70.8284 49.1712C70.0783 48.421 69.0609 47.9996 68 47.9996ZM12 75.9996C10.9391 75.9996 9.92172 75.5782 9.17157 74.828C8.42143 74.0779 8 73.0605 8 71.9996V57.7196L19.6 46.1196C20.1876 45.5596 20.9683 45.2472 21.78 45.2472C22.5917 45.2472 23.3724 45.5596 23.96 46.1196L36.64 58.7996L53.84 75.9996H12ZM64 71.9996C63.9942 72.7653 63.7418 73.5088 63.28 74.1196L45.24 55.9996L48.04 53.1996C48.3268 52.9069 48.6691 52.6744 49.0468 52.5156C49.4246 52.3569 49.8302 52.2751 50.24 52.2751C50.6498 52.2751 51.0554 52.3569 51.4332 52.5156C51.8109 52.6744 52.1532 52.9069 52.44 53.1996L64 64.8396V71.9996ZM82.84 13.1596L70.84 1.15958C70.4596 0.795422 70.011 0.509963 69.52 0.319585C68.5462 -0.0804868 67.4538 -0.0804868 66.48 0.319585C65.989 0.509963 65.5404 0.795422 65.16 1.15958L53.16 13.1596C52.787 13.5325 52.4912 13.9753 52.2894 14.4626C52.0875 14.9499 51.9836 15.4721 51.9836 15.9996C51.9836 17.0648 52.4068 18.0864 53.16 18.8396C53.9132 19.5928 54.9348 20.016 56 20.016C57.0652 20.016 58.0868 19.5928 58.84 18.8396L64 13.6396V35.9996C64 37.0605 64.4214 38.0779 65.1716 38.828C65.9217 39.5782 66.9391 39.9996 68 39.9996C69.0609 39.9996 70.0783 39.5782 70.8284 38.828C71.5786 38.0779 72 37.0605 72 35.9996V13.6396L77.16 18.8396C77.5319 19.2145 77.9743 19.5121 78.4617 19.7151C78.9491 19.9182 79.472 20.0228 80 20.0228C80.528 20.0228 81.0509 19.9182 81.5383 19.7151C82.0257 19.5121 82.4681 19.2145 82.84 18.8396C83.2149 18.4677 83.5125 18.0253 83.7156 17.5379C83.9186 17.0505 84.0232 16.5276 84.0232 15.9996C84.0232 15.4715 83.9186 14.9487 83.7156 14.4613C83.5125 13.9738 83.2149 13.5314 82.84 13.1596Z" fill="#575757"/>
</svg>
