<svg width="41" height="21" viewBox="0 0 41 21" fill="none" xmlns="http://www.w3.org/2000/svg">
<path fill-rule="evenodd" clip-rule="evenodd" d="M14.2324 18.4582H11.4697C11.0986 18.4582 10.7687 18.1164 10.7687 17.7319V0.726366C10.7687 0.341819 11.0986 0 11.4697 0H30.0252C30.3963 0 30.7261 0.341819 30.7261 0.726366V3.1191H34.8496C36.3753 3.1191 37.7772 3.71729 38.7669 4.8282C39.839 6.02457 40.375 7.69094 40.375 9.74185V17.7319C40.375 18.1164 40.0451 18.4582 39.674 18.4582H37.4061C37.2 19.8682 36.0042 20.9792 34.5609 20.9792C33.1177 20.9792 31.9219 19.8682 31.7158 18.4582H30.0252H20.3351H20.1701C19.964 19.8682 18.7682 20.9792 17.325 20.9792C15.8817 20.9792 14.6859 19.8682 14.4798 18.4155C14.3973 18.4582 14.3148 18.4582 14.2324 18.4582ZM33.0765 17.9455C33.0765 18.8001 33.7363 19.4837 34.561 19.4837C35.3856 19.4837 36.0454 18.8001 36.0454 17.9455C36.0454 17.091 35.3856 16.4073 34.561 16.4073C33.7363 16.4073 33.0765 17.091 33.0765 17.9455ZM30.7674 4.57183H34.8496C37.4061 4.57183 38.973 6.53729 38.973 9.69912V16.9628H37.2824C36.8701 15.8091 35.798 14.9546 34.561 14.9546C33.2827 14.9546 32.2106 15.8091 31.8395 16.9628H30.7674V4.57183ZM15.8817 17.9455C15.8817 18.8001 16.5415 19.4837 17.3662 19.4837C18.1496 19.4837 18.8094 18.8001 18.8506 17.9455C18.8506 17.091 18.1909 16.4073 17.3662 16.4073C16.5415 16.4073 15.8817 17.091 15.8817 17.9455ZM12.1707 1.45273H29.2829V3.84547V16.9628H20.3351C20.2526 16.9628 20.1701 16.9628 20.0877 17.0055C19.7166 15.8091 18.6032 14.9546 17.325 14.9546C16.0467 14.9546 14.9334 15.8519 14.5623 17.0482C14.4798 17.0055 14.3561 16.9628 14.2324 16.9628H12.1707V1.45273ZM1.32599 4.31547C0.954876 4.31547 0.625 4.65729 0.625 5.04183C0.625 5.42638 0.954876 5.7682 1.32599 5.7682H8.08843C8.45954 5.7682 8.78942 5.42638 8.78942 5.04183C8.78942 4.65729 8.45954 4.31547 8.08843 4.31547H1.32599ZM8.08843 9.95548H2.39808C2.02697 9.95548 1.69709 9.61367 1.69709 9.22912C1.69709 8.84457 2.02697 8.50275 2.39808 8.50275H8.08843C8.45954 8.50275 8.78942 8.84457 8.78942 9.22912C8.78942 9.61367 8.45954 9.95548 8.08843 9.95548ZM3.34647 12.6473C2.97536 12.6473 2.64548 12.9891 2.64548 13.3737C2.64548 13.801 2.97536 14.1428 3.34647 14.1001H8.04719C8.4183 14.1001 8.74818 13.7582 8.74818 13.3737C8.74818 12.9891 8.4183 12.6473 8.04719 12.6473H3.34647Z" fill="#2B2B2B"/>
</svg>
