<svg width="35" height="34" viewBox="0 0 35 34" fill="none" xmlns="http://www.w3.org/2000/svg">
<path fill-rule="evenodd" clip-rule="evenodd" d="M24.9707 27.2816L13.2901 33.1034C13.2756 33.1034 13.257 33.1073 13.2355 33.1117C13.1803 33.123 13.106 33.1383 13.0316 33.1034C12.956 33.1034 12.908 33.0774 12.8472 33.0445C12.8249 33.0324 12.8009 33.0194 12.7732 33.0064L1.19592 26.1658C1.04087 26.1173 0.9375 25.9232 0.9375 25.7777V16.2202C0.9375 16.0747 1.04087 15.8806 1.19592 15.7836C2.62149 15.1145 8.80906 12.0188 11.5633 10.6409L11.5644 10.6403C12.2046 10.32 12.6592 10.0926 12.8249 10.0103C12.9283 9.91324 13.135 9.91324 13.2901 10.0103L24.9191 15.9776C25.0741 16.0261 25.2292 16.2202 25.2292 16.4143V26.845C25.2292 27.0391 25.1258 27.1846 24.9707 27.2816ZM13.5485 22.6727V31.842L24.1955 26.5054V17.1905L21.1978 18.743V22.0905C21.1978 22.2846 21.0944 22.4301 20.9394 22.5272L18.0967 23.9826C17.9934 24.0311 17.9417 24.0311 17.8383 24.0311C17.7349 24.0311 17.6833 24.0311 17.5799 23.9826C17.4248 23.8856 17.3215 23.74 17.3215 23.546V20.7321L13.5485 22.6727ZM9.00027 13.0182L20.1641 18.743V21.7994L18.3551 22.7212V19.9073V19.8588V19.8103C18.3551 19.7618 18.3551 19.7133 18.3035 19.6648C18.2776 19.6405 18.2647 19.6163 18.2518 19.592C18.2388 19.5677 18.2259 19.5435 18.2001 19.5192L18.1484 19.4707L18.0967 19.4222L7.19131 13.94L9.00027 13.0182ZM23.627 16.4143L13.0317 10.9806L10.0856 12.4845L20.6809 17.9182L23.627 16.4143ZM6.05427 14.4737L16.7529 19.9073L13.0317 21.7994L2.53973 16.2202L6.05427 14.4737ZM1.9712 17.045V25.5351L12.5148 31.745V22.6242L1.9712 17.045Z" fill="#2B2B2B"/>
<path d="M10.6022 24.2891L3.93294 19.9554C3.67839 19.7843 3.37293 19.8984 3.2202 20.1835C3.06747 20.4686 3.16929 20.8107 3.42384 20.9818L10.0931 25.3155C10.3477 25.4865 10.6531 25.3725 10.8058 25.0874C10.9586 24.8023 10.8568 24.4601 10.6022 24.2891Z" fill="#2B2B2B"/>
<path d="M10.6022 26.5502L3.93294 22.1393C3.67839 22.0247 3.37293 22.082 3.2202 22.3684C3.06747 22.6549 3.16929 22.9986 3.42384 23.1704L10.0931 27.5241C10.3477 27.6959 10.6531 27.5814 10.8058 27.2949C10.9586 27.0658 10.8568 26.7221 10.6022 26.5502Z" fill="#2B2B2B"/>
<path fill-rule="evenodd" clip-rule="evenodd" d="M29.5182 16.3045C29.4183 16.4593 29.2685 16.5625 29.0688 16.5625C28.869 16.5625 28.7192 16.5109 28.6693 16.3561C28.4695 16.0465 24.125 8.77142 24.125 5.10806C24.125 2.27025 26.3222 0 29.0688 0C31.8153 0 34.0126 2.27025 34.0625 5.05646C34.0625 8.56503 29.718 15.9949 29.5182 16.3045ZM33.0138 5.10806C33.0138 2.83781 31.266 1.03193 29.0688 1.03193C26.8715 1.03193 25.1237 2.83781 25.1237 5.10806C25.1237 7.84268 27.9702 13.1055 29.0688 15.0662C30.1674 13.1055 33.0138 7.68789 33.0138 5.10806Z" fill="#2B2B2B"/>
<path fill-rule="evenodd" clip-rule="evenodd" d="M29.0964 2.20898C30.602 2.20898 31.8568 3.46372 31.8568 4.9694C31.8568 6.47508 30.602 7.72982 29.0964 7.72982C27.5907 7.72982 26.3359 6.47508 26.3359 4.9694C26.3359 3.46372 27.5907 2.20898 29.0964 2.20898ZM29.0964 3.21277C28.1428 3.21277 27.3397 4.0158 27.3397 4.9694C27.3397 5.923 28.0926 6.72603 29.0964 6.72603C30.05 6.72603 30.853 5.923 30.853 4.9694C30.853 4.0158 30.05 3.21277 29.0964 3.21277Z" fill="#2B2B2B"/>
<path d="M30.9658 17.8144C30.8642 17.7168 30.7627 17.668 30.6104 17.668C30.4581 17.668 30.3566 17.7168 30.255 17.8144L27.3106 20.6462C27.1075 20.8415 27.1075 21.1345 27.3106 21.3297C27.5136 21.525 27.8182 21.525 28.0213 21.3297L30.1027 19.328V31.0457H21.3202C21.0156 31.0457 20.8125 31.241 20.8125 31.5339C20.8125 31.8268 21.0156 32.0221 21.3202 32.0221H30.6104C30.915 32.0221 31.1181 31.8268 31.1181 31.5339V19.328L33.1995 21.3297C33.4025 21.525 33.7071 21.525 33.9102 21.3297C34.1133 21.1345 34.1133 20.8415 33.9102 20.6462L30.9658 17.8144Z" fill="#2B2B2B"/>
<path d="M5.83691 11.0417C6.12812 11.0417 6.32226 10.8505 6.32226 10.5637V3.72836H21.368L19.3781 5.68813C19.184 5.87933 19.184 6.16613 19.3781 6.35732C19.5723 6.54852 19.8635 6.54852 20.0576 6.35732L22.8726 3.58496C22.9212 3.53716 22.9697 3.48936 22.9697 3.44156C23.0182 3.39376 23.0182 3.29816 23.0182 3.25036C23.0182 3.20256 23.0182 3.10696 22.9697 3.05916C22.9697 3.01136 22.9212 2.96356 22.8726 2.91577L20.0576 0.143398C19.8635 -0.0477994 19.5723 -0.0477994 19.3781 0.143398C19.184 0.334596 19.184 0.621393 19.3781 0.81259L21.368 2.77237H5.83691C5.5457 2.77237 5.35156 2.96356 5.35156 3.25036V10.5637C5.35156 10.8027 5.5457 11.0417 5.83691 11.0417Z" fill="#2B2B2B"/>
</svg>
