<svg width="35" height="25" viewBox="0 0 35 25" fill="none" xmlns="http://www.w3.org/2000/svg">
<path d="M4.55434 11.0417H11.253C11.5374 11.0417 11.7682 10.7943 11.7682 10.4896C11.7682 10.1848 11.5374 9.9375 11.253 9.9375H4.55434C4.26991 9.9375 4.03906 10.1848 4.03906 10.4896C4.03906 10.7943 4.26922 11.0417 4.55434 11.0417Z" fill="#2B2B2B"/>
<path d="M11.7682 12.6986C11.7682 12.3938 11.5289 12.1465 11.234 12.1465H1.2608C0.965902 12.1465 0.726562 12.3938 0.726562 12.6986C0.726562 13.0033 0.965902 13.2507 1.2608 13.2507H11.234C11.5289 13.2507 11.7682 13.0033 11.7682 12.6986Z" fill="#2B2B2B"/>
<path fill-rule="evenodd" clip-rule="evenodd" d="M21.889 0.0344247C21.889 0.0344247 34.6971 5.05765 34.7312 5.08129C34.872 5.17796 34.9564 5.34 34.957 5.51386V18.4798C34.957 18.6919 34.8312 18.8832 34.6386 18.9631L21.8986 24.2534C21.8918 24.2562 21.7659 24.2917 21.7067 24.2917C21.6475 24.2917 21.5216 24.2562 21.5148 24.2534L8.77477 18.9631C8.5829 18.8832 8.45703 18.6919 8.45703 18.4798V17.6049H9.4776V18.1272L21.1964 22.994V11.1546L17.4618 9.6038V13.3933L13.4816 11.9405V7.95141L9.4776 6.28859V8.85063H8.45703V5.51386C8.45703 5.3407 8.54072 5.17796 8.68156 5.08129C8.71285 5.06043 21.5237 0.0344247 21.5237 0.0344247C21.6414 -0.0114749 21.7713 -0.0114749 21.889 0.0344247ZM10.3566 5.52777L14.1436 7.10088L25.0113 2.37461L21.7074 1.07969L10.3566 5.52777ZM21.7067 10.2415L18.1218 8.75256L29.0697 3.9651L33.0567 5.52777L21.7067 10.2415ZM22.2163 22.9954L33.9358 18.1286V6.28859L22.2163 11.1553V22.9954Z" fill="#2B2B2B"/>
<path d="M10.6641 16.0111C10.6641 15.7063 10.4256 15.459 10.1317 15.459H4.57139C4.27755 15.459 4.03906 15.7063 4.03906 16.0111C4.03906 16.3158 4.27755 16.5632 4.57139 16.5632H10.1317C10.4256 16.5632 10.6641 16.3158 10.6641 16.0111Z" fill="#2B2B2B"/>
<path d="M30.8164 17.6476L32.4707 16.9708C32.6228 16.9085 32.7474 16.7214 32.7474 16.555V14.5653C32.7474 14.3989 32.6228 14.3135 32.4707 14.3759L30.8164 15.0526C30.6637 15.115 30.5391 15.302 30.5391 15.4685V17.4581C30.5391 17.6246 30.6637 17.7099 30.8164 17.6476Z" fill="#2B2B2B"/>
<path d="M24.2368 20.9539L29.1122 18.782C29.2895 18.7028 29.4349 18.4651 29.4349 18.2536V15.7256C29.4349 15.5141 29.2895 15.4057 29.1122 15.4849L24.2368 17.6568C24.0594 17.736 23.9141 17.9737 23.9141 18.1852V20.7132C23.9141 20.9247 24.0594 21.0331 24.2368 20.9539Z" fill="#2B2B2B"/>
</svg>
